{
	"patcher" : 	{
		"fileversion" : 1,
		"appversion" : 		{
			"major" : 6,
			"minor" : 1,
			"revision" : 6,
			"architecture" : "x86"
		}
,
		"rect" : [ 25.0, 69.0, 1221.0, 649.0 ],
		"bglocked" : 0,
		"openinpresentation" : 0,
		"default_fontsize" : 12.0,
		"default_fontface" : 0,
		"default_fontname" : "Arial",
		"gridonopen" : 0,
		"gridsize" : [ 15.0, 15.0 ],
		"gridsnaponopen" : 0,
		"statusbarvisible" : 2,
		"toolbarvisible" : 1,
		"boxanimatetime" : 200,
		"imprint" : 0,
		"enablehscroll" : 1,
		"enablevscroll" : 1,
		"devicewidth" : 0.0,
		"description" : "",
		"digest" : "",
		"tags" : "",
		"boxes" : [ 			{
				"box" : 				{
					"fontname" : "Arial",
					"fontsize" : 12.0,
					"frgb" : 0.0,
					"id" : "obj-45",
					"linecount" : 4,
					"maxclass" : "comment",
					"numinlets" : 1,
					"numoutlets" : 0,
					"patching_rect" : [ 502.0, 125.0, 150.0, 60.0 ],
					"text" : "it's not elegant but it works...uncheck all currently checked boxes quickly"
				}

			}
, 			{
				"box" : 				{
					"fontname" : "Arial",
					"fontsize" : 12.0,
					"id" : "obj-43",
					"maxclass" : "newobj",
					"numinlets" : 1,
					"numoutlets" : 0,
					"patching_rect" : [ 379.0, 114.0, 34.0, 20.0 ],
					"text" : "print"
				}

			}
, 			{
				"box" : 				{
					"id" : "obj-40",
					"maxclass" : "button",
					"numinlets" : 1,
					"numoutlets" : 1,
					"outlettype" : [ "bang" ],
					"patching_rect" : [ 240.0, 378.0, 20.0, 20.0 ],
					"presentation_rect" : [ 367.0, 599.0, 0.0, 0.0 ]
				}

			}
, 			{
				"box" : 				{
					"id" : "obj-41",
					"maxclass" : "button",
					"numinlets" : 1,
					"numoutlets" : 1,
					"outlettype" : [ "bang" ],
					"patching_rect" : [ 220.0, 378.0, 20.0, 20.0 ],
					"presentation_rect" : [ 347.0, 599.0, 0.0, 0.0 ]
				}

			}
, 			{
				"box" : 				{
					"fontname" : "Arial",
					"fontsize" : 12.0,
					"id" : "obj-42",
					"maxclass" : "newobj",
					"numinlets" : 1,
					"numoutlets" : 1,
					"outlettype" : [ "" ],
					"patching_rect" : [ 231.0, 348.0, 120.0, 20.0 ],
					"presentation_rect" : [ 358.0, 569.0, 0.0, 0.0 ],
					"text" : "if $i1 == 1 then bang"
				}

			}
, 			{
				"box" : 				{
					"id" : "obj-37",
					"maxclass" : "button",
					"numinlets" : 1,
					"numoutlets" : 1,
					"outlettype" : [ "bang" ],
					"patching_rect" : [ 211.0, 328.0, 20.0, 20.0 ],
					"presentation_rect" : [ 335.0, 553.0, 0.0, 0.0 ]
				}

			}
, 			{
				"box" : 				{
					"id" : "obj-38",
					"maxclass" : "button",
					"numinlets" : 1,
					"numoutlets" : 1,
					"outlettype" : [ "bang" ],
					"patching_rect" : [ 191.0, 328.0, 20.0, 20.0 ],
					"presentation_rect" : [ 315.0, 553.0, 0.0, 0.0 ]
				}

			}
, 			{
				"box" : 				{
					"fontname" : "Arial",
					"fontsize" : 12.0,
					"id" : "obj-39",
					"maxclass" : "newobj",
					"numinlets" : 1,
					"numoutlets" : 1,
					"outlettype" : [ "" ],
					"patching_rect" : [ 202.0, 298.0, 120.0, 20.0 ],
					"presentation_rect" : [ 326.0, 523.0, 0.0, 0.0 ],
					"text" : "if $i1 == 1 then bang"
				}

			}
, 			{
				"box" : 				{
					"id" : "obj-34",
					"maxclass" : "button",
					"numinlets" : 1,
					"numoutlets" : 1,
					"outlettype" : [ "bang" ],
					"patching_rect" : [ 182.0, 278.0, 20.0, 20.0 ],
					"presentation_rect" : [ 274.0, 504.0, 0.0, 0.0 ]
				}

			}
, 			{
				"box" : 				{
					"id" : "obj-35",
					"maxclass" : "button",
					"numinlets" : 1,
					"numoutlets" : 1,
					"outlettype" : [ "bang" ],
					"patching_rect" : [ 162.0, 278.0, 20.0, 20.0 ],
					"presentation_rect" : [ 254.0, 504.0, 0.0, 0.0 ]
				}

			}
, 			{
				"box" : 				{
					"fontname" : "Arial",
					"fontsize" : 12.0,
					"id" : "obj-36",
					"maxclass" : "newobj",
					"numinlets" : 1,
					"numoutlets" : 1,
					"outlettype" : [ "" ],
					"patching_rect" : [ 173.0, 248.0, 120.0, 20.0 ],
					"presentation_rect" : [ 263.0, 477.0, 0.0, 0.0 ],
					"text" : "if $i1 == 1 then bang"
				}

			}
, 			{
				"box" : 				{
					"id" : "obj-32",
					"maxclass" : "button",
					"numinlets" : 1,
					"numoutlets" : 1,
					"outlettype" : [ "bang" ],
					"patching_rect" : [ 151.0, 222.0, 20.0, 20.0 ],
					"presentation_rect" : [ 219.0, 510.0, 0.0, 0.0 ]
				}

			}
, 			{
				"box" : 				{
					"id" : "obj-33",
					"maxclass" : "button",
					"numinlets" : 1,
					"numoutlets" : 1,
					"outlettype" : [ "bang" ],
					"patching_rect" : [ 131.0, 222.0, 20.0, 20.0 ],
					"presentation_rect" : [ 199.0, 510.0, 0.0, 0.0 ]
				}

			}
, 			{
				"box" : 				{
					"fontname" : "Arial",
					"fontsize" : 12.0,
					"id" : "obj-23",
					"maxclass" : "newobj",
					"numinlets" : 1,
					"numoutlets" : 1,
					"outlettype" : [ "" ],
					"patching_rect" : [ 146.5, 192.0, 120.0, 20.0 ],
					"text" : "if $i1 == 1 then bang"
				}

			}
, 			{
				"box" : 				{
					"fontname" : "Arial",
					"fontsize" : 12.0,
					"id" : "obj-20",
					"maxclass" : "newobj",
					"numinlets" : 1,
					"numoutlets" : 5,
					"outlettype" : [ "int", "int", "int", "int", "int" ],
					"patching_rect" : [ 120.0, 165.0, 125.0, 20.0 ],
					"text" : "unpack 0 0 0 0 0"
				}

			}
, 			{
				"box" : 				{
					"id" : "obj-16",
					"maxclass" : "button",
					"numinlets" : 1,
					"numoutlets" : 1,
					"outlettype" : [ "bang" ],
					"patching_rect" : [ 69.0, 65.0, 20.0, 20.0 ]
				}

			}
, 			{
				"box" : 				{
					"fontname" : "Arial",
					"fontsize" : 12.0,
					"id" : "obj-12",
					"maxclass" : "newobj",
					"numinlets" : 5,
					"numoutlets" : 1,
					"outlettype" : [ "" ],
					"patching_rect" : [ 120.0, 134.0, 86.0, 20.0 ],
					"text" : "pack 0 0 0 0 0"
				}

			}
, 			{
				"box" : 				{
					"id" : "obj-10",
					"maxclass" : "toggle",
					"numinlets" : 1,
					"numoutlets" : 1,
					"outlettype" : [ "int" ],
					"parameter_enable" : 0,
					"patching_rect" : [ 268.0, 36.0, 37.0, 37.0 ]
				}

			}
, 			{
				"box" : 				{
					"id" : "obj-8",
					"maxclass" : "toggle",
					"numinlets" : 1,
					"numoutlets" : 1,
					"outlettype" : [ "int" ],
					"parameter_enable" : 0,
					"patching_rect" : [ 170.399994, 36.0, 37.0, 37.0 ]
				}

			}
, 			{
				"box" : 				{
					"id" : "obj-4",
					"maxclass" : "toggle",
					"numinlets" : 1,
					"numoutlets" : 1,
					"outlettype" : [ "int" ],
					"parameter_enable" : 0,
					"patching_rect" : [ 120.0, 36.0, 37.0, 37.0 ]
				}

			}
, 			{
				"box" : 				{
					"id" : "obj-2",
					"maxclass" : "toggle",
					"numinlets" : 1,
					"numoutlets" : 1,
					"outlettype" : [ "int" ],
					"parameter_enable" : 0,
					"patching_rect" : [ 219.399994, 36.0, 37.0, 37.0 ]
				}

			}
 ],
		"lines" : [ 			{
				"patchline" : 				{
					"destination" : [ "obj-12", 4 ],
					"disabled" : 0,
					"hidden" : 0,
					"source" : [ "obj-10", 0 ]
				}

			}
, 			{
				"patchline" : 				{
					"destination" : [ "obj-43", 0 ],
					"disabled" : 0,
					"hidden" : 0,
					"source" : [ "obj-10", 0 ]
				}

			}
, 			{
				"patchline" : 				{
					"destination" : [ "obj-20", 0 ],
					"disabled" : 0,
					"hidden" : 0,
					"source" : [ "obj-12", 0 ]
				}

			}
, 			{
				"patchline" : 				{
					"destination" : [ "obj-12", 0 ],
					"disabled" : 0,
					"hidden" : 0,
					"source" : [ "obj-16", 0 ]
				}

			}
, 			{
				"patchline" : 				{
					"destination" : [ "obj-12", 3 ],
					"disabled" : 0,
					"hidden" : 0,
					"source" : [ "obj-2", 0 ]
				}

			}
, 			{
				"patchline" : 				{
					"destination" : [ "obj-43", 0 ],
					"disabled" : 0,
					"hidden" : 0,
					"source" : [ "obj-2", 0 ]
				}

			}
, 			{
				"patchline" : 				{
					"destination" : [ "obj-23", 0 ],
					"disabled" : 0,
					"hidden" : 0,
					"source" : [ "obj-20", 1 ]
				}

			}
, 			{
				"patchline" : 				{
					"destination" : [ "obj-36", 0 ],
					"disabled" : 0,
					"hidden" : 0,
					"source" : [ "obj-20", 2 ]
				}

			}
, 			{
				"patchline" : 				{
					"destination" : [ "obj-39", 0 ],
					"disabled" : 0,
					"hidden" : 0,
					"source" : [ "obj-20", 3 ]
				}

			}
, 			{
				"patchline" : 				{
					"destination" : [ "obj-42", 0 ],
					"disabled" : 0,
					"hidden" : 0,
					"source" : [ "obj-20", 4 ]
				}

			}
, 			{
				"patchline" : 				{
					"destination" : [ "obj-32", 0 ],
					"disabled" : 0,
					"hidden" : 0,
					"source" : [ "obj-23", 0 ]
				}

			}
, 			{
				"patchline" : 				{
					"destination" : [ "obj-33", 0 ],
					"disabled" : 0,
					"hidden" : 0,
					"source" : [ "obj-23", 0 ]
				}

			}
, 			{
				"patchline" : 				{
					"destination" : [ "obj-4", 0 ],
					"disabled" : 0,
					"hidden" : 0,
					"source" : [ "obj-32", 0 ]
				}

			}
, 			{
				"patchline" : 				{
					"destination" : [ "obj-4", 0 ],
					"disabled" : 0,
					"hidden" : 0,
					"source" : [ "obj-33", 0 ]
				}

			}
, 			{
				"patchline" : 				{
					"destination" : [ "obj-8", 0 ],
					"disabled" : 0,
					"hidden" : 0,
					"source" : [ "obj-34", 0 ]
				}

			}
, 			{
				"patchline" : 				{
					"destination" : [ "obj-8", 0 ],
					"disabled" : 0,
					"hidden" : 0,
					"source" : [ "obj-35", 0 ]
				}

			}
, 			{
				"patchline" : 				{
					"destination" : [ "obj-34", 0 ],
					"disabled" : 0,
					"hidden" : 0,
					"source" : [ "obj-36", 0 ]
				}

			}
, 			{
				"patchline" : 				{
					"destination" : [ "obj-35", 0 ],
					"disabled" : 0,
					"hidden" : 0,
					"source" : [ "obj-36", 0 ]
				}

			}
, 			{
				"patchline" : 				{
					"destination" : [ "obj-2", 0 ],
					"disabled" : 0,
					"hidden" : 0,
					"source" : [ "obj-37", 0 ]
				}

			}
, 			{
				"patchline" : 				{
					"destination" : [ "obj-2", 0 ],
					"disabled" : 0,
					"hidden" : 0,
					"source" : [ "obj-38", 0 ]
				}

			}
, 			{
				"patchline" : 				{
					"destination" : [ "obj-37", 0 ],
					"disabled" : 0,
					"hidden" : 0,
					"source" : [ "obj-39", 0 ]
				}

			}
, 			{
				"patchline" : 				{
					"destination" : [ "obj-38", 0 ],
					"disabled" : 0,
					"hidden" : 0,
					"source" : [ "obj-39", 0 ]
				}

			}
, 			{
				"patchline" : 				{
					"destination" : [ "obj-12", 1 ],
					"disabled" : 0,
					"hidden" : 0,
					"source" : [ "obj-4", 0 ]
				}

			}
, 			{
				"patchline" : 				{
					"destination" : [ "obj-43", 0 ],
					"disabled" : 0,
					"hidden" : 0,
					"source" : [ "obj-4", 0 ]
				}

			}
, 			{
				"patchline" : 				{
					"destination" : [ "obj-10", 0 ],
					"disabled" : 0,
					"hidden" : 0,
					"source" : [ "obj-40", 0 ]
				}

			}
, 			{
				"patchline" : 				{
					"destination" : [ "obj-10", 0 ],
					"disabled" : 0,
					"hidden" : 0,
					"source" : [ "obj-41", 0 ]
				}

			}
, 			{
				"patchline" : 				{
					"destination" : [ "obj-40", 0 ],
					"disabled" : 0,
					"hidden" : 0,
					"source" : [ "obj-42", 0 ]
				}

			}
, 			{
				"patchline" : 				{
					"destination" : [ "obj-41", 0 ],
					"disabled" : 0,
					"hidden" : 0,
					"source" : [ "obj-42", 0 ]
				}

			}
, 			{
				"patchline" : 				{
					"destination" : [ "obj-12", 2 ],
					"disabled" : 0,
					"hidden" : 0,
					"source" : [ "obj-8", 0 ]
				}

			}
, 			{
				"patchline" : 				{
					"destination" : [ "obj-43", 0 ],
					"disabled" : 0,
					"hidden" : 0,
					"source" : [ "obj-8", 0 ]
				}

			}
 ],
		"dependency_cache" : [  ]
	}

}
